<svg xmlns="http://www.w3.org/2000/svg" xmlns:xlink="http://www.w3.org/1999/xlink" version="1.1" id="Layer_1" x="0px" y="0px" viewBox="0 0 95 95" enable-background="new 0 0 95 95" xml:space="preserve"><ellipse fill="#6DBE45" stroke="#010101" stroke-miterlimit="10" cx="48" cy="47.4" rx="45.6" ry="46.1"/><path fill="#FFFFFF" stroke="#010101" stroke-miterlimit="10" d="M79.4 80.6c-6.7-8.3-10.7-19-10.7-29.7c0-12.7 4.7-24.8 13.8-33.6 l3.9 5.4c-7.9 7.6-11.5 17.2-11.5 28.2c0 9.3 2.9 17.9 8.7 25.1L79.4 80.6z"/><path fill="#FFFFFF" stroke="#010101" stroke-miterlimit="10" d="M16.7 80.8l-4.2-4.6c5.8-7.1 8.2-15 8.2-24.3 c0-11-3.7-20.6-11.5-28.2l3.4-5.2c9.1 8.8 14.3 20.7 14.3 33.5C26.8 62.7 23.4 72.6 16.7 80.8z"/></svg>