<svg xmlns="http://www.w3.org/2000/svg" xmlns:xlink="http://www.w3.org/1999/xlink" version="1.1" id="Layer_1" x="0px" y="0px" viewBox="0 0 95 95" enable-background="new 0 0 95 95" xml:space="preserve"><g><ellipse fill="#080705" cx="47.2" cy="47.5" rx="45.1" ry="45.9"/><g><path fill="#D8872F" d="M23.7 30.6c2.4-13.8 7.4-21.5 12.5-25.7c0.4-0.3 0.8-0.6 1.2-0.9c-7.7 1.8-14.7 5.7-20.3 11 c0 0.2 0 0.4 0 0.7c0.1 1.2 0.2 2.6 0.3 3.5c0.1 1 0.4 2.3 0.4 4.4c0 1.8-0.2 4.2-0.7 7.6C19.1 30.9 21.3 30.7 23.7 30.6z"/><path fill="#D8872F" d="M25.6 30.6c0.4 0 0.8 0 1.1 0c2.2 0 4.5 0.1 7 0.2c0.6-3.5 2.1-6.6 4.3-9.1c2.4-2.8 5.4-5 8.7-6.7 c6.6-3.4 14.2-4.9 19.5-4.9c0.4 0 0.8 0 1.2 0c1.7 0.1 3.2 0.3 4.6 0.6c-7.1-5-15.6-7.9-24.9-7.9c-1.4 0-2.7 0.1-4 0.2 c-1.8 0.7-3.8 1.7-5.7 3.3C32.8 10.2 28 17.3 25.6 30.6z"/><path fill="#D8872F" d="M14.8 33.5c-2.4 0.5-4.3 1-5.9 1.7C6.9 36 5.4 37 4.4 38c-0.6 3-1 6.2-1 9.5c0 5.5 1 10.8 2.8 15.6 c0.1-3.8 1-7.5 2.4-10.8C11.2 45.9 13.3 40.7 14.8 33.5z"/><path fill="#D8872F" d="M16 23.6c0-2-0.2-3.1-0.3-4.1c-0.1-0.7-0.2-1.7-0.2-2.7C10.7 21.9 7.1 28.1 5.1 35c2.3-1.5 5.5-2.8 10-3.6 C15.8 27.8 16 25.4 16 23.6z"/><path fill="#D8872F" d="M86.6 46.4c-6.4-4.5-18.9-9.9-43.2-12.8c-2.9-0.3-5.5-0.6-8-0.8c-0.1 0.7-0.1 1.4-0.1 2.1 c0 6.6 2.5 12 6.3 17.1c3.8 5.1 9 9.8 14.3 14.8c6.8 6.5 12.8 11.8 17.2 13.9c0.9 0.4 1.6 0.7 2.3 0.9 c8.9-7.6 14.8-18.8 15.5-31.5C89.9 49 88.5 47.7 86.6 46.4z"/><path fill="#D8872F" d="M22 50.2c0-5.6 0.5-11.5 1.4-17.7c-2.5 0.1-4.7 0.3-6.6 0.6c-1.5 7.7-3.7 13.3-6.5 19.9 C8.9 56.4 8 60.3 8 64c0 1.4 0.1 2.8 0.4 4.1c5.4 10.5 14.7 18.5 26 22c-2.2-2.1-4.1-4.8-5.7-7.8C24.3 74.1 22 63 22 50.2z"/><path fill="#D8872F" d="M76.5 14.4c-2.3-1.1-5.3-2.1-9.1-2.3c-0.3 0-0.7 0-1.1 0c-3.7 0-8.8 0.8-13.8 2.6c-5 1.8-9.8 4.5-13 8.3 c-1.9 2.3-3.3 4.9-3.8 8c2.5 0.2 5.2 0.4 8 0.8c24.4 2.9 37.3 8.3 44 13.1c1.3 0.9 2.4 1.8 3.3 2.7c0 0 0 0 0 0 C91 34.3 85.4 22.5 76.5 14.4z"/><path fill="#D8872F" d="M67.1 79.1c-3.7-2.8-7.9-6.6-12.5-10.9c-5.2-5-10.5-9.8-14.5-15.1c-4-5.3-6.7-11.1-6.7-18.2 c0-0.7 0-1.5 0.1-2.2c-2.4-0.1-4.7-0.2-6.8-0.2c-0.5 0-1 0-1.5 0c-0.9 6.1-1.4 12.1-1.4 17.7c0 9.4 1.3 17.8 3.7 24.8 c2.4 6.9 5.9 12.3 10.3 15.6c0.3 0.2 0.6 0.4 0.9 0.6c2.7 0.5 5.6 0.8 8.5 0.8c9.9 0 19.1-3.4 26.4-9c-0.5-0.2-0.9-0.4-1.4-0.6 C70.7 81.6 68.9 80.5 67.1 79.1z"/></g></g></svg>