<?xml version="1.0" encoding="utf-8"?>
<!-- Generator: Adobe Illustrator 18.1.0, SVG Export Plug-In . SVG Version: 6.00 Build 0)  -->
<!DOCTYPE svg PUBLIC "-//W3C//DTD SVG 1.1//EN" "http://www.w3.org/Graphics/SVG/1.1/DTD/svg11.dtd">
<svg version="1.1" id="Layer_1" xmlns="http://www.w3.org/2000/svg" xmlns:xlink="http://www.w3.org/1999/xlink" x="0px" y="0px"
	 viewBox="0 0 95 95" enable-background="new 0 0 95 95" xml:space="preserve">
<g>
	<circle fill="#FFFFFF" cx="47.1" cy="47.2" r="44.2"/>
	<path d="M87.8,27.9C82.9,17.6,74.4,9.6,63.8,5.4c-5.3-2.1-11-3.2-16.8-3.2c-5.5,0-10.9,1-16.1,3c-9.9,3.8-18.3,11-23.4,20.4
		C4,32.1,2,39.6,2,47.2c0,2,0.1,4,0.4,6c0.4,3.1,1.2,6.2,2.2,9.2l0,0c3,8.4,8.5,15.7,15.7,21.1l0.2,0.1h0C28,89,36.7,92,45.9,92.2
		c0.4,0,0.8,0,1.2,0c12,0,23.3-4.7,31.8-13.1c7.8-7.7,12.4-18,13.1-28.9c0.1-1,0.1-2,0.1-3C92.1,40.4,90.7,33.9,87.8,27.9z
		 M77.9,76.8l5.4-14.4L89.8,50l0.8,0.5c-0.8,10.2-5.1,19.7-12.2,27.1L77.9,76.8z M45.8,88.4L29.4,83l-3.5-11.5l14-6.3l16.9,5.3
		L60,81.7L45.8,88.4z M31.9,13.8l14.6,3.8l2.3,15.6L35.7,45.6l-15.5-3.8L17.6,26L31.9,13.8z M88.8,49l-6.5,12.3l-10.2-3.9l-3.7-18.2
		l7.3-11.7L85,31L88.8,49z M49.6,34.2l17.5,5.4l3.7,18L57.2,69.2l-16.8-5.2l-3.8-17.4L49.6,34.2z M86.4,28.1l-1.1,1.6l-9.5-3.5
		L64.3,13.3V7C74,11.2,81.8,18.6,86.4,28.1z M62.9,6.5V13l-15.8,3.3l-14.7-3.8L32,6.2c4.8-1.8,9.9-2.7,15.1-2.7
		C52.6,3.5,57.9,4.5,62.9,6.5z M8.6,26.5l7.7-0.1l2.6,15.8l-6.1,14.2h-7l-2.1-3.6c-0.2-1.9-0.4-3.8-0.4-5.7
		C3.4,40,5.2,32.8,8.6,26.5z M6,62l0.1-4.3H13l11.5,13.7l3.5,11.3L21,82.3C14.1,77.1,8.9,70.1,6,62z M46.6,90.9v-1.4l14.5-6.8
		l15.8-5l0.7,0.8c-8.2,8-19,12.3-30.4,12.3C46.9,90.9,46.7,90.9,46.6,90.9z"/>
</g>
</svg>
