<svg xmlns="http://www.w3.org/2000/svg" xmlns:xlink="http://www.w3.org/1999/xlink" version="1.1" id="Layer_1" x="0px" y="0px" viewBox="0 0 250 200" enable-background="new 0 0 250 200" xml:space="preserve">
<g>
	<path fill="#EC1C25" d="M237.9 151.1V10H12.7v141.1h84.9l0.7 8.2l0 0l2.5 28.4c0 0.5 0.4 1 0.9 1.1c0.5 0.1 1.1 0 1.4-0.5l7.4-9.9 l7.3 9.1c0.5 0.6 1.5 0.6 2 0l7.4-9.1l7.4 9.1c0.5 0.6 1.5 0.6 2 0l7.3-9.1l7.4 9.9c0.2 0.3 0.6 0.5 1 0.5c0.1 0 0.2 0 0.3 0 c0.5-0.1 0.9-0.6 0.9-1.1l2.5-28.4l0 0l0.7-8.2H237.9z M20.2 143.5V17.7h209.9v125.9h-73.1l0.7-8.5h23.9V51.6H70.3v83.5H96l0.7 8.5 H20.2L20.2 143.5z M143.8 173.8l-6.4-14.3l8.6-16l7 15.6L143.8 173.8z M127 173.8l-7.7-14.4l7.7-17.3l7.7 17.3L127 173.8z M110.1 173.8l-9.2-14.6l7-15.6l8.6 16L110.1 173.8z M114.4 122.8l-6.7 15.1l-8.1-15.1H114.4z M132.8 122.8L127 136l-5.9-13.2 H132.8z M154.3 122.8l-8.1 15.1l-6.7-15.1H154.3z M159 122.8h0.2c2.1 0 3.9-1.7 3.9-3.9c0-2.1-1.7-3.9-3.9-3.9H93.1 c-2.1 0-3.9 1.7-3.9 3.9c0 2.1 1.7 3.9 3.9 3.9h2l0.4 4.7H78V59.3h96.2v68.2h-15.7L159 122.8z M97.7 124.5l8.7 16.3l-6.1 13.6 L97.7 124.5z M109.2 140.7l8-17.9h1.1l7.3 16.4l-7.8 17.6L109.2 140.7z M128.4 139.2l7.3-16.4h1.1l8 17.9l-8.6 16L128.4 139.2z M147.6 140.8l8.7-16.3l-2.6 29.8L147.6 140.8z M103 184.2l-1.8-19.8l7.6 12L103 184.2z M118.7 184.7l-6.9-8.5l6.2-13.9l7.5 14 L118.7 184.7z M135.3 184.7l-6.8-8.5l7.5-14l6.2 13.9L135.3 184.7z M151 184.2l-5.8-7.8l7.6-12L151 184.2z"/>
	<path d="M143.8 173.8l-6.4-14.3l8.6-16l7 15.6L143.8 173.8z M127 173.8l-7.7-14.4l7.7-17.3l7.7 17.3L127 173.8z M110.1 173.8 l-9.2-14.6l7-15.6l8.6 16L110.1 173.8z M114.4 122.8l-6.7 15.1l-8.1-15.1H114.4z M132.8 122.8L127 136l-5.9-13.2H132.8z M154.3 122.8l-8.1 15.1l-6.7-15.1H154.3z M158.6 127.5l0.4-4.7h0.2c2.1 0 3.9-1.7 3.9-3.9c0-2.1-1.7-3.9-3.9-3.9H93.1 c-2.1 0-3.9 1.7-3.9 3.9c0 2.1 1.7 3.9 3.9 3.9h2l0.4 4.7l2.1 23.7l0.7 8.2l0 0l2.5 28.4c0 0.5 0.4 1 0.9 1.1 c0.5 0.1 1.1 0 1.4-0.5l7.4-9.9l7.3 9.1c0.5 0.6 1.5 0.6 2 0l7.4-9.1l7.4 9.1c0.5 0.6 1.5 0.6 2 0l7.3-9.1l7.4 9.9 c0.2 0.3 0.6 0.5 1 0.5c0.1 0 0.2 0 0.3 0c0.5-0.1 0.9-0.6 0.9-1.1l2.5-28.4l0 0l0.7-8.2l0.7-7.6l0.7-8.5L158.6 127.5z M97.7 124.5 l8.7 16.3l-6.1 13.6L97.7 124.5z M109.2 140.7l8-17.9h1.1l7.3 16.4l-7.8 17.6L109.2 140.7z M128.4 139.2l7.3-16.4h1.1l8 17.9 l-8.6 16L128.4 139.2z M147.6 140.8l8.7-16.3l-2.6 29.8L147.6 140.8z M103 184.2l-1.8-19.8l7.6 12L103 184.2z M118.7 184.7 l-6.9-8.5l6.2-13.9l7.5 14L118.7 184.7z M135.3 184.7l-6.8-8.5l7.5-14l6.2 13.9L135.3 184.7z M151 184.2l-5.8-7.8l7.6-12L151 184.2 z"/>
</g>
</svg>
