<svg xmlns="http://www.w3.org/2000/svg" xmlns:xlink="http://www.w3.org/1999/xlink" version="1.1" id="Layer_1" x="0px" y="0px" viewBox="0 0 95 95" enable-background="new 0 0 95 95" xml:space="preserve"><ellipse fill="#FFFFFF" stroke="#010101" stroke-miterlimit="10" cx="47.4" cy="47" rx="44.6" ry="45.5"/><polygon fill="#ED1F24" stroke="#000000" stroke-width="0.5" stroke-miterlimit="10" points="21.5,11.1 23.1,13.3 16.3,18.5 14.7,16.4"/><polygon fill="#ED1F24" stroke="#000000" stroke-width="0.5" stroke-miterlimit="10" points="26.1,18.3 19.1,22.7 17.8,20.5 24.8,16.1"/><polygon fill="#ED1F24" stroke="#000000" stroke-width="0.5" stroke-miterlimit="10" points="28,22.3 20.6,26.1 19.5,23.8 26.9,20"/><polygon fill="#ED1F24" stroke="#000000" stroke-width="0.5" stroke-miterlimit="10" points="29.5,26.5 21.8,29.6 20.9,27.2 28.6,24.1"/><polygon fill="#ED1F24" stroke="#000000" stroke-width="0.5" stroke-miterlimit="10" points="30.7,30.8 22.7,33.2 22,30.7 30,28.3"/><polygon fill="#ED1F24" stroke="#000000" stroke-width="0.5" stroke-miterlimit="10" points="31.4,35.3 23.3,36.9 22.8,34.3 30.9,32.7"/><polygon fill="#ED1F24" stroke="#000000" stroke-width="0.5" stroke-miterlimit="10" points="23.5,40.6 23.3,38 31.5,37.1 31.8,39.7"/><rect x="26.2" y="38.8" transform="matrix(1.070272e-02 0.9999 -0.9999 1.070272e-02 70.1912 14.9327)" fill="#ED1F24" stroke="#000000" stroke-width="0.5" stroke-miterlimit="10" width="2.6" height="8.3"/><polygon fill="#ED1F24" stroke="#000000" stroke-width="0.5" stroke-miterlimit="10" points="31.3,48.6 23,48 23.2,45.4 31.5,46.1"/><polygon fill="#ED1F24" stroke="#000000" stroke-width="0.5" stroke-miterlimit="10" points="30.4,53 22.2,51.6 22.7,49 30.8,50.5"/><polygon fill="#ED1F24" stroke="#000000" stroke-width="0.5" stroke-miterlimit="10" points="29.2,57.3 21.2,55.1 21.8,52.6 29.8,54.8"/><polygon fill="#ED1F24" stroke="#000000" stroke-width="0.5" stroke-miterlimit="10" points="27.6,61.5 19.8,58.6 20.7,56.1 28.4,59"/><polygon fill="#ED1F24" stroke="#000000" stroke-width="0.5" stroke-miterlimit="10" points="25.6,65.5 18.1,61.9 19.2,59.5 26.7,63.1"/><polygon fill="#ED1F24" stroke="#000000" stroke-width="0.5" stroke-miterlimit="10" points="22.4,70.1 15,65.6 16.4,63.3 23.7,67.7"/><polygon fill="#ED1F24" stroke="#000000" stroke-width="0.5" stroke-miterlimit="10" points="19.6,73.8 12.7,68.6 14.2,66.5 21.2,71.6"/><polygon fill="#ED1F24" stroke="#000000" stroke-width="0.5" stroke-miterlimit="10" points="16.6,77.2 10.1,71.4 11.9,69.4 18.3,75.1"/><polygon fill="#ED1F24" stroke="#000000" stroke-width="0.5" stroke-miterlimit="10" points="79.3,17.4 77.8,19.5 71.2,14.4 72.7,12.3"/><polygon fill="#ED1F24" stroke="#000000" stroke-width="0.5" stroke-miterlimit="10" points="70.3,16.1 77.3,20.5 76,22.7 68.9,18.3"/><polygon fill="#ED1F24" stroke="#000000" stroke-width="0.5" stroke-miterlimit="10" points="68.2,20 75.6,23.8 74.5,26.1 67.1,22.3"/><polygon fill="#ED1F24" stroke="#000000" stroke-width="0.5" stroke-miterlimit="10" points="66.5,24.1 74.2,27.2 73.3,29.6 65.6,26.5"/><polygon fill="#ED1F24" stroke="#000000" stroke-width="0.5" stroke-miterlimit="10" points="65.1,28.3 73.1,30.7 72.4,33.2 64.4,30.8"/><polygon fill="#ED1F24" stroke="#000000" stroke-width="0.5" stroke-miterlimit="10" points="64.2,32.7 72.3,34.3 71.8,36.9 63.7,35.3"/><polygon fill="#ED1F24" stroke="#000000" stroke-width="0.5" stroke-miterlimit="10" points="63.3,39.7 63.6,37.1 71.8,38 71.6,40.6"/><rect x="66.2" y="38.8" transform="matrix(-1.070269e-02 0.9999 -0.9999 -1.070269e-02 111.1986 -24.1356)" fill="#ED1F24" stroke="#000000" stroke-width="0.5" stroke-miterlimit="10" width="2.6" height="8.3"/><polygon fill="#ED1F24" stroke="#000000" stroke-width="0.5" stroke-miterlimit="10" points="63.6,46.1 71.9,45.4 72.1,48 63.8,48.6"/><polygon fill="#ED1F24" stroke="#000000" stroke-width="0.5" stroke-miterlimit="10" points="64.2,50.5 72.4,49 72.8,51.6 64.7,53"/><polygon fill="#ED1F24" stroke="#000000" stroke-width="0.5" stroke-miterlimit="10" points="65.3,54.8 73.3,52.6 73.9,55.1 65.9,57.3"/><polygon fill="#ED1F24" stroke="#000000" stroke-width="0.5" stroke-miterlimit="10" points="66.7,59 74.4,56.1 75.3,58.6 67.5,61.5"/><polygon fill="#ED1F24" stroke="#000000" stroke-width="0.5" stroke-miterlimit="10" points="68.4,63.1 75.9,59.5 77,61.9 69.5,65.5"/><polygon fill="#ED1F24" stroke="#000000" stroke-width="0.5" stroke-miterlimit="10" points="70.5,67 77.7,62.7 79,65 71.8,69.3"/><polygon fill="#ED1F24" stroke="#000000" stroke-width="0.5" stroke-miterlimit="10" points="73,70.7 79.7,65.8 81.2,67.9 74.5,72.8"/><polygon fill="#ED1F24" stroke="#000000" stroke-width="0.5" stroke-miterlimit="10" points="75.8,74.2 82,68.6 83.7,70.6 77.5,76.2"/></svg>