<?xml version="1.0" encoding="utf-8"?>
<!-- Generator: Adobe Illustrator 18.1.0, SVG Export Plug-In . SVG Version: 6.00 Build 0)  -->
<!DOCTYPE svg PUBLIC "-//W3C//DTD SVG 1.1//EN" "http://www.w3.org/Graphics/SVG/1.1/DTD/svg11.dtd">
<svg version="1.1" id="Layer_1" xmlns="http://www.w3.org/2000/svg" xmlns:xlink="http://www.w3.org/1999/xlink" x="0px" y="0px"
	 viewBox="0 0 250 200" enable-background="new 0 0 250 200" xml:space="preserve">
<g>
	<polygon points="143.7,149.2 144.2,148.2 144.6,149.2 147.5,149.2 145.8,145.4 145.9,145.2 142.9,145.2 142.9,145.2 140.8,149.2 	
		"/>
	<polygon fill="#FFFFFF" points="146.4,155.2 144.6,151.2 144.2,150.2 143.7,151.2 141.5,155.2 137.2,163.4 150.1,163.4 	"/>
</g>
<polygon fill="#FFFFFF" points="146.4,155.3 144.6,151.3 144.2,150.3 143.7,151.3 141.5,155.3 137.2,163.4 150.1,163.4 "/>
<polygon fill="#FFFFFF" points="146.4,155.3 144.6,151.3 144.2,150.3 143.7,151.3 141.5,155.3 137.2,163.4 150.1,163.4 "/>
<polygon fill="none" points="109.9,183.1 116.8,191.6 123.6,183.2 117.3,171.4 115.1,171.4 "/>
<polygon fill="none" points="126.7,183.1 133.5,191.6 140.4,183 135.2,171.4 133,171.4 "/>
<polygon fill="none" points="108.2,180.6 112.3,171.4 102.4,171.4 "/>
<polygon fill="none" points="101.1,191.1 106.9,183.2 99.4,171.4 99.3,171.4 "/>
<polygon fill="none" points="125.1,180.6 130,171.4 120.2,171.4 "/>
<polygon fill="none" points="142,180.6 147.8,171.4 137.9,171.4 "/>
<polygon fill="none" points="149.2,191.1 151,171.4 150.9,171.4 143.4,183.3 "/>
<polygon fill="#FFFFFF" points="95.4,155.3 68.7,155.3 68.7,71 181.5,71 181.5,155.3 154.9,155.3 154.7,157.9 154.2,163.4 
	230,163.4 230,36.3 19.1,36.3 19.1,163.4 96.1,163.4 95.6,157.9 "/>
<polygon fill="#FFFFFF" points="137.9,171.4 147.8,171.4 150.3,167.4 136.1,167.4 "/>
<polygon fill="#EC1C25" points="151,171.3 150.9,171.4 151,171.4 "/>
<polygon fill="#FFFFFF" points="115.1,171.4 117.3,171.4 116.1,169.2 "/>
<polygon fill="#FFFFFF" points="133,171.4 135.2,171.4 134.2,169.1 "/>
<polygon fill="#EC1C25" points="99.3,171.4 99.4,171.4 99.3,171.2 "/>
<polygon fill="#EC1C25" points="115.9,163.5 115.9,163.4 115.8,163.4 "/>
<polygon fill="#EC1C25" points="11.1,28.3 11.1,171.4 96.8,171.4 96.4,167.4 96.3,166.1 96.1,163.4 19.1,163.4 19.1,36.3 230,36.3 
	230,163.4 154.2,163.4 154,166.1 153.9,167.4 153.5,171.4 238,171.4 238,28.3 "/>
<polygon fill="#FFFFFF" points="150.1,163.4 137.2,163.4 135.6,166.3 136.1,167.4 150.3,167.4 151.2,165.9 "/>
<path fill="#FFFFFF" d="M93.1,129.4h-2c-2.2,0-3.9-1.7-3.9-3.9s1.8-3.9,3.9-3.9h66.3c2.2,0,3.9,1.8,3.9,3.9c0,2.2-1.8,3.9-3.9,3.9
	h-0.2l-0.4,4.7l-0.7,7.7l-0.5,5.5h17.9V79H76.7v68.3h18l-1.2-13.2L93.1,129.4z"/>
<polygon fill="#FFFFFF" points="105.8,144.6 112.5,129.5 97.7,129.5 "/>
<polygon fill="#FFFFFF" points="119.2,129.5 125.1,142.7 131,129.5 "/>
<polygon fill="#FFFFFF" points="152.5,129.5 137.7,129.5 144.4,144.6 "/>
<polygon fill="#FFFFFF" points="142.9,147.3 134.9,129.4 133.8,129.4 126.5,145.8 127.2,147.3 129,151.3 130.7,155.3 134.3,163.3 
	138.6,155.3 140.8,151.3 142.9,147.3 "/>
<polygon fill="#FFFFFF" points="145.9,147.3 145.8,147.5 147.5,151.3 149.3,155.3 151.9,161.1 152.4,155.3 152.8,151.3 153.1,147.3 
	154.5,131.2 "/>
<polygon fill="#EC1C25" points="68.7,71 68.7,155.3 95.4,155.3 95,151.3 94.7,147.3 76.7,147.3 76.7,79 173.5,79 173.5,147.3 
	155.6,147.3 155.4,150.3 155.3,151.3 154.9,155.3 181.5,155.3 181.5,71 "/>
<polygon fill="#FFFFFF" points="113,163.4 108.7,155.3 106.5,151.3 106,150.3 105.6,151.3 103.8,155.3 100.1,163.4 99,165.9 
	99.9,167.4 102.4,171.4 112.3,171.4 114.1,167.4 114.6,166.3 "/>
<polygon fill="#FFFFFF" points="116.4,129.5 115.3,129.5 107.3,147.3 107.3,147.4 109.4,151.3 111.5,155.3 115.8,163.4 115.9,163.4 
	119.5,155.3 121.3,151.3 123.1,147.3 123.7,145.9 "/>
<polygon fill="#FFFFFF" points="131.6,163.4 127.9,155.3 126.2,151.3 125.1,148.9 124,151.3 122.3,155.3 118.6,163.4 117.4,166.2 
	118,167.4 120.2,171.4 130,171.4 132.2,167.4 132.8,166.2 "/>
<polygon fill="#FFFFFF" points="104.4,147.3 95.8,131.2 97.2,147.3 97.6,151.3 97.9,155.3 98.4,161 101,155.3 102.8,151.3 
	104.5,147.5 "/>
<line fill="none" stroke="#EC1C25" stroke-width="8" stroke-miterlimit="10" x1="64.6" y1="167.4" x2="206.5" y2="167.4"/>
<line fill="none" stroke="#EC1C25" stroke-width="8" stroke-miterlimit="10" x1="79.2" y1="151.3" x2="167.9" y2="151.3"/>
<path d="M149.2,189.1l-5.8-7.8l7.5-11.9h-3.2l-5.8,9.2l-4.1-9.2h-2.7l5.2,11.6l-6.9,8.6l-6.8-8.5l6.3-11.7H130l-4.9,9.2l-4.9-9.2
	h-2.9l6.3,11.8l-6.8,8.4l-6.9-8.5l5.2-11.7h-2.8l-4.1,9.2l-5.8-9.2h-3l7.5,11.8l-5.8,7.9l-1.8-19.7h-2.6l2,23.2c0,0.5,0.4,1,0.9,1.1
	c0.5,0.1,1.1,0,1.4-0.5l7.4-9.9l7.3,9.1c0.5,0.6,1.5,0.6,2,0l7.4-9.1l7.4,9.1c0.5,0.6,1.5,0.6,2,0l7.3-9.1l7.4,9.9
	c0.2,0.3,0.6,0.5,1,0.5c0.1,0,0.2,0,0.3,0c0.5-0.1,0.9-0.6,0.9-1.1l2-23.2H151L149.2,189.1z"/>
<polygon points="101,153.3 98.4,159 97.9,153.3 95.4,153.3 95.6,155.9 96.1,161.4 100.1,161.4 103.8,153.3 "/>
<polygon points="111.5,153.3 108.7,153.3 113,161.4 115.8,161.4 "/>
<polygon points="119.5,153.3 115.9,161.4 118.6,161.4 122.3,153.3 "/>
<polygon points="138.6,153.3 134.3,161.3 130.7,153.3 127.9,153.3 131.6,161.4 137.2,161.4 141.5,153.3 "/>
<polygon points="154.9,153.3 152.4,153.3 151.9,159.1 149.3,153.3 146.4,153.3 150.1,161.4 154.2,161.4 154.7,155.9 "/>
<polygon points="150.3,165.4 147.8,169.4 150.9,169.4 151,169.3 151,169.4 153.5,169.4 153.9,165.4 "/>
<polygon points="99.3,169.2 99.4,169.4 102.4,169.4 99.9,165.4 96.4,165.4 96.8,169.4 99.3,169.4 "/>
<polygon points="132.2,165.4 130,169.4 133,169.4 134.2,167.1 135.2,169.4 137.9,169.4 136.1,165.4 "/>
<polygon points="114.1,165.4 112.3,169.4 115.1,169.4 116.1,167.2 117.3,169.4 120.2,169.4 118,165.4 "/>
<polygon points="118.6,161.4 115.9,161.4 115.9,161.5 115.8,161.4 113,161.4 114.6,164.3 114.1,165.4 118,165.4 117.4,164.2 "/>
<polygon points="99,163.9 100.1,161.4 96.1,161.4 96.3,164.1 96.4,165.4 99.9,165.4 "/>
<polygon points="154.2,161.4 150.1,161.4 151.2,163.9 150.3,165.4 153.9,165.4 154,164.1 "/>
<polygon points="132.8,164.2 132.2,165.4 136.1,165.4 135.6,164.3 137.2,161.4 131.6,161.4 "/>
<path d="M126.5,143.8l7.3-16.4h1.1l8,17.9h3l8.6-16.1l-1.4,16.1h2.5l0.5-5.5l0.7-7.7l0.4-4.7h0.2c2.1,0,3.9-1.7,3.9-3.9
	c0-2.1-1.7-3.9-3.9-3.9H91.1c-2.1,0-3.9,1.7-3.9,3.9s1.7,3.9,3.9,3.9h2l0.4,4.7l1.2,13.2h2.5l-1.4-16.1l8.6,16.1h3l8-17.8h1.1
	l7.3,16.4l-0.6,1.4h4.1L126.5,143.8z M152.5,127.5l-8.1,15.1l-6.7-15.1H152.5z M105.8,142.6l-8.1-15.1h14.8L105.8,142.6z
	 M119.2,127.5H131l-5.9,13.2L119.2,127.5z"/>
<polygon points="140.8,149.3 138.6,153.3 141.5,153.3 143.7,149.3 "/>
<polygon points="119.5,153.3 122.3,153.3 124,149.3 121.3,149.3 "/>
<polygon points="95,149.3 95.4,153.3 97.9,153.3 97.6,149.3 "/>
<polygon points="144.6,149.3 146.4,153.3 149.3,153.3 147.5,149.3 "/>
<polygon points="102.8,149.3 101,153.3 103.8,153.3 105.6,149.3 "/>
<polygon points="109.4,149.3 106.5,149.3 108.7,153.3 111.5,153.3 "/>
<polygon points="126.2,149.3 127.9,153.3 130.7,153.3 129,149.3 "/>
<polygon points="152.8,149.3 152.4,153.3 154.9,153.3 155.3,149.3 "/>
<polygon points="123.1,145.3 121.3,149.3 124,149.3 125.1,146.9 126.2,149.3 129,149.3 127.2,145.3 "/>
<polygon points="94.7,145.3 95,149.3 97.6,149.3 97.2,145.3 "/>
<polygon points="155.6,145.3 153.1,145.3 152.8,149.3 155.3,149.3 155.4,148.3 "/>
<polygon points="107.3,145.3 104.4,145.3 104.5,145.5 102.8,149.3 105.6,149.3 106,148.3 106.5,149.3 109.4,149.3 107.3,145.4 "/>
<polygon points="143.7,149.3 144.2,148.3 144.6,149.3 147.5,149.3 145.8,145.5 145.9,145.3 142.9,145.3 142.9,145.3 140.8,149.3 "/>
<polygon points="144.7,149.2 145.2,148.2 145.6,149.2 148.5,149.2 146.8,145.4 146.9,145.2 143.9,145.2 143.9,145.2 141.8,149.2 "/>
<path d="M150.2,189.1l-5.8-7.8l7.5-11.9h-3.2l-5.8,9.2l-4.1-9.2h-2.7l5.2,11.6l-6.9,8.6l-6.8-8.5l6.3-11.7H131l-4.9,9.2l-4.9-9.2
	h-2.9l6.3,11.8l-6.8,8.4l-6.9-8.5l5.2-11.7h-2.8l-4.1,9.2l-5.8-9.2h-3l7.5,11.8l-5.8,7.9l-1.8-19.7h-2.6l2,23.2c0,0.5,0.4,1,0.9,1.1
	c0.5,0.1,1.1,0,1.4-0.5l7.4-9.9l7.3,9.1c0.5,0.6,1.5,0.6,2,0l7.4-9.1l7.4,9.1c0.5,0.6,1.5,0.6,2,0l7.3-9.1l7.4,9.9
	c0.2,0.3,0.6,0.5,1,0.5c0.1,0,0.2,0,0.3,0c0.5-0.1,0.9-0.6,0.9-1.1l2-23.2H152L150.2,189.1z"/>
<polygon points="102,153.3 99.4,159 98.9,153.3 96.4,153.3 96.6,155.9 97.1,161.4 101.1,161.4 104.8,153.3 "/>
<polygon points="112.5,153.3 109.7,153.3 114,161.4 116.8,161.4 "/>
<polygon points="120.5,153.3 116.9,161.4 119.6,161.4 123.3,153.3 "/>
<polygon points="139.6,153.3 135.3,161.3 131.7,153.3 128.9,153.3 132.6,161.4 138.2,161.4 142.5,153.3 "/>
<polygon points="155.9,153.3 153.4,153.3 152.9,159.1 150.3,153.3 147.4,153.3 151.1,161.4 155.2,161.4 155.7,155.9 "/>
<polygon points="151.3,165.4 148.8,169.4 151.9,169.4 152,169.3 152,169.4 154.5,169.4 154.9,165.4 "/>
<polygon points="100.3,169.2 100.4,169.4 103.4,169.4 100.9,165.4 97.4,165.4 97.8,169.4 100.3,169.4 "/>
<polygon points="133.2,165.4 131,169.4 134,169.4 135.2,167.1 136.2,169.4 138.9,169.4 137.1,165.4 "/>
<polygon points="115.1,165.4 113.3,169.4 116.1,169.4 117.1,167.2 118.3,169.4 121.2,169.4 119,165.4 "/>
<polygon points="119.6,161.4 116.9,161.4 116.9,161.5 116.8,161.4 114,161.4 115.6,164.3 115.1,165.4 119,165.4 118.4,164.2 "/>
<polygon points="100,163.9 101.1,161.4 97.1,161.4 97.3,164.1 97.4,165.4 100.9,165.4 "/>
<polygon points="155.2,161.4 151.1,161.4 152.2,163.9 151.3,165.4 154.9,165.4 155,164.1 "/>
<polygon points="133.8,164.2 133.2,165.4 137.1,165.4 136.6,164.3 138.2,161.4 132.6,161.4 "/>
<path d="M127.5,143.8l7.3-16.4h1.1l8,17.9h3l8.6-16.1l-1.4,16.1h2.5l0.5-5.5l0.7-7.7l0.4-4.7h0.2c2.1,0,3.9-1.7,3.9-3.9
	c0-2.1-1.7-3.9-3.9-3.9H92.1c-2.1,0-3.9,1.7-3.9,3.9s1.7,3.9,3.9,3.9h2l0.4,4.7l1.2,13.2h2.5l-1.4-16.1l8.6,16.1h3l8-17.8h1.1
	l7.3,16.4l-0.6,1.4h4.1L127.5,143.8z M153.5,127.5l-8.1,15.1l-6.7-15.1H153.5z M106.8,142.6l-8.1-15.1h14.8L106.8,142.6z
	 M120.2,127.5H132l-5.9,13.2L120.2,127.5z"/>
<polygon points="141.8,149.3 139.6,153.3 142.5,153.3 144.7,149.3 "/>
<polygon points="120.5,153.3 123.3,153.3 125,149.3 122.3,149.3 "/>
<polygon points="96,149.3 96.4,153.3 98.9,153.3 98.6,149.3 "/>
<polygon points="145.6,149.3 147.4,153.3 150.3,153.3 148.5,149.3 "/>
<polygon points="103.8,149.3 102,153.3 104.8,153.3 106.6,149.3 "/>
<polygon points="110.4,149.3 107.5,149.3 109.7,153.3 112.5,153.3 "/>
<polygon points="127.2,149.3 128.9,153.3 131.7,153.3 130,149.3 "/>
<polygon points="153.8,149.3 153.4,153.3 155.9,153.3 156.3,149.3 "/>
<polygon points="124.1,145.3 122.3,149.3 125,149.3 126.1,146.9 127.2,149.3 130,149.3 128.2,145.3 "/>
<polygon points="95.7,145.3 96,149.3 98.6,149.3 98.2,145.3 "/>
<polygon points="156.6,145.3 154.1,145.3 153.8,149.3 156.3,149.3 156.4,148.3 "/>
<polygon points="108.3,145.3 105.4,145.3 105.5,145.5 103.8,149.3 106.6,149.3 107,148.3 107.5,149.3 110.4,149.3 108.3,145.4 "/>
<polygon points="144.7,149.3 145.2,148.3 145.6,149.3 148.5,149.3 146.8,145.5 146.9,145.3 143.9,145.3 143.9,145.3 141.8,149.3 "/>
<polygon points="142.7,149.2 143.2,148.2 143.6,149.2 146.5,149.2 144.8,145.4 144.9,145.2 141.9,145.2 141.9,145.2 139.8,149.2 "/>
<path d="M148.2,189.1l-5.8-7.8l7.5-11.9h-3.2l-5.8,9.2l-4.1-9.2h-2.7l5.2,11.6l-6.9,8.6l-6.8-8.5l6.3-11.7H129l-4.9,9.2l-4.9-9.2
	h-2.9l6.3,11.8l-6.8,8.4l-6.9-8.5l5.2-11.7h-2.8l-4.1,9.2l-5.8-9.2h-3l7.5,11.8l-5.8,7.9l-1.8-19.7h-2.6l2,23.2c0,0.5,0.4,1,0.9,1.1
	c0.5,0.1,1.1,0,1.4-0.5l7.4-9.9l7.3,9.1c0.5,0.6,1.5,0.6,2,0l7.4-9.1l7.4,9.1c0.5,0.6,1.5,0.6,2,0l7.3-9.1l7.4,9.9
	c0.2,0.3,0.6,0.5,1,0.5c0.1,0,0.2,0,0.3,0c0.5-0.1,0.9-0.6,0.9-1.1l2-23.2H150L148.2,189.1z"/>
<polygon points="100,153.3 97.4,159 96.9,153.3 94.4,153.3 94.6,155.9 95.1,161.4 99.1,161.4 102.8,153.3 "/>
<polygon points="110.5,153.3 107.7,153.3 112,161.4 114.8,161.4 "/>
<polygon points="118.5,153.3 114.9,161.4 117.6,161.4 121.3,153.3 "/>
<polygon points="137.6,153.3 133.3,161.3 129.7,153.3 126.9,153.3 130.6,161.4 136.2,161.4 140.5,153.3 "/>
<polygon points="153.9,153.3 151.4,153.3 150.9,159.1 148.3,153.3 145.4,153.3 149.1,161.4 153.2,161.4 153.7,155.9 "/>
<polygon points="149.3,165.4 146.8,169.4 149.9,169.4 150,169.3 150,169.4 152.5,169.4 152.9,165.4 "/>
<polygon points="98.3,169.2 98.4,169.4 101.4,169.4 98.9,165.4 95.4,165.4 95.8,169.4 98.3,169.4 "/>
<polygon points="131.2,165.4 129,169.4 132,169.4 133.2,167.1 134.2,169.4 136.9,169.4 135.1,165.4 "/>
<polygon points="113.1,165.4 111.3,169.4 114.1,169.4 115.1,167.2 116.3,169.4 119.2,169.4 117,165.4 "/>
<polygon points="117.6,161.4 114.9,161.4 114.9,161.5 114.8,161.4 112,161.4 113.6,164.3 113.1,165.4 117,165.4 116.4,164.2 "/>
<polygon points="98,163.9 99.1,161.4 95.1,161.4 95.3,164.1 95.4,165.4 98.9,165.4 "/>
<polygon points="153.2,161.4 149.1,161.4 150.2,163.9 149.3,165.4 152.9,165.4 153,164.1 "/>
<polygon points="131.8,164.2 131.2,165.4 135.1,165.4 134.6,164.3 136.2,161.4 130.6,161.4 "/>
<path d="M125.5,143.8l7.3-16.4h1.1l8,17.9h3l8.6-16.1l-1.4,16.1h2.5l0.5-5.5l0.7-7.7l0.4-4.7h0.2c2.1,0,3.9-1.7,3.9-3.9
	c0-2.1-1.7-3.9-3.9-3.9H90.1c-2.1,0-3.9,1.7-3.9,3.9s1.7,3.9,3.9,3.9h2l0.4,4.7l1.2,13.2h2.5l-1.4-16.1l8.6,16.1h3l8-17.8h1.1
	l7.3,16.4l-0.6,1.4h4.1L125.5,143.8z M151.5,127.5l-8.1,15.1l-6.7-15.1H151.5z M104.8,142.6l-8.1-15.1h14.8L104.8,142.6z
	 M118.2,127.5H130l-5.9,13.2L118.2,127.5z"/>
<polygon points="139.8,149.3 137.6,153.3 140.5,153.3 142.7,149.3 "/>
<polygon points="118.5,153.3 121.3,153.3 123,149.3 120.3,149.3 "/>
<polygon points="94,149.3 94.4,153.3 96.9,153.3 96.6,149.3 "/>
<polygon points="143.6,149.3 145.4,153.3 148.3,153.3 146.5,149.3 "/>
<polygon points="101.8,149.3 100,153.3 102.8,153.3 104.6,149.3 "/>
<polygon points="108.4,149.3 105.5,149.3 107.7,153.3 110.5,153.3 "/>
<polygon points="125.2,149.3 126.9,153.3 129.7,153.3 128,149.3 "/>
<polygon points="151.8,149.3 151.4,153.3 153.9,153.3 154.3,149.3 "/>
<polygon points="122.1,145.3 120.3,149.3 123,149.3 124.1,146.9 125.2,149.3 128,149.3 126.2,145.3 "/>
<polygon points="93.7,145.3 94,149.3 96.6,149.3 96.2,145.3 "/>
<polygon points="154.6,145.3 152.1,145.3 151.8,149.3 154.3,149.3 154.4,148.3 "/>
<polygon points="106.3,145.3 103.4,145.3 103.5,145.5 101.8,149.3 104.6,149.3 105,148.3 105.5,149.3 108.4,149.3 106.3,145.4 "/>
<polygon points="142.7,149.3 143.2,148.3 143.6,149.3 146.5,149.3 144.8,145.5 144.9,145.3 141.9,145.3 141.9,145.3 139.8,149.3 "/>
</svg>
